<?xml version="1.0" standalone="no"?>
<!DOCTYPE svg PUBLIC "-//W3C//DTD SVG 20010904//EN"
 "http://www.w3.org/TR/2001/REC-SVG-20010904/DTD/svg10.dtd">
<svg version="1.0" xmlns="http://www.w3.org/2000/svg"
 width="256.000000pt" height="256.000000pt" viewBox="0 0 256.000000 256.000000"
 preserveAspectRatio="xMidYMid meet">
<metadata>
Created by potrace 1.14, written by Peter Selinger 2001-2017
</metadata>
<g transform="translate(0.000000,256.000000) scale(0.100000,-0.100000)"
fill="#000000" stroke="none">
<path d="M731 2543 c-19 -9 -46 -36 -61 -60 -47 -73 -26 -159 51 -213 16 -12
27 -25 25 -28 -2 -4 -7 -27 -11 -52 -4 -25 -8 -47 -10 -50 -2 -3 -6 -23 -9
-45 -6 -35 -16 -95 -30 -175 -2 -14 -11 -63 -20 -110 -9 -47 -18 -103 -22
-125 -3 -22 -9 -56 -14 -75 -5 -19 -14 -68 -20 -107 -10 -65 -14 -73 -34 -73
-37 0 -99 -52 -117 -98 -27 -70 8 -159 76 -192 23 -11 46 -20 51 -20 6 0 11
-6 11 -12 0 -13 10 -84 18 -128 2 -14 7 -43 10 -65 3 -22 8 -51 10 -65 6 -34
45 -296 51 -340 2 -19 6 -46 9 -60 3 -14 7 -43 10 -65 3 -22 8 -52 11 -66 3
-17 -2 -31 -17 -45 -81 -73 -62 -211 35 -255 115 -52 226 14 231 138 2 55 3
58 61 111 126 117 172 159 399 365 29 27 45 35 60 30 36 -12 106 -4 139 16
104 65 91 229 -21 276 -50 21 -93 19 -144 -9 l-44 -23 -110 59 c-61 32 -193
102 -294 155 -250 130 -241 124 -241 152 0 28 -46 111 -61 111 -12 0 -7 45 17
174 9 44 18 92 20 106 19 111 66 374 74 410 5 25 12 65 16 90 6 48 20 80 34
80 16 0 72 53 82 79 27 69 6 150 -51 190 -43 31 -125 38 -170 14z m148 -87
c18 -21 20 -67 5 -97 -31 -60 -128 -59 -160 3 -50 96 85 178 155 94z m-222
-1105 c29 -15 43 -42 43 -79 0 -59 -69 -101 -127 -77 -92 39 -57 180 42 170
11 -1 30 -7 42 -14z m202 -247 c167 -88 305 -161 421 -223 52 -27 95 -56 96
-63 0 -7 4 -28 8 -46 7 -28 4 -36 -16 -53 -12 -11 -48 -44 -78 -72 -30 -29
-130 -120 -221 -204 l-166 -152 -39 11 c-22 7 -40 13 -42 13 -2 2 -19 103 -37
220 -3 22 -10 69 -16 105 -6 36 -13 83 -16 105 -2 22 -17 119 -32 215 -25 156
-26 177 -13 193 8 9 17 17 20 17 2 0 61 -30 131 -66z m732 -217 c92 -71 -1
-210 -101 -151 -53 32 -57 114 -7 149 26 18 86 19 108 2z m-740 -652 c52 -28
63 -87 24 -133 -30 -35 -62 -44 -104 -26 -67 28 -75 118 -14 156 35 22 56 22
94 3z"/>
<path d="M1686 2511 c-16 -11 -33 -27 -38 -35 -8 -14 -46 -16 -297 -16 l-289
0 -1 -60 -1 -60 290 0 c265 0 290 -1 302 -18 25 -33 68 -54 108 -51 38 3 43
-1 289 -240 244 -237 250 -244 245 -277 -6 -37 6 -66 45 -107 l26 -28 1 -341
0 -341 -28 -25 c-30 -27 -53 -91 -43 -121 8 -28 -491 -514 -520 -507 -33 8
-89 -11 -118 -41 l-26 -28 -284 0 -285 1 0 -61 0 -60 285 1 285 0 33 -33 c18
-18 41 -33 52 -34 10 0 28 -2 39 -3 31 -4 84 24 108 57 12 17 21 45 22 72 2
45 2 46 249 287 239 235 247 242 288 243 58 2 101 27 122 71 25 53 15 111 -25
147 l-31 28 0 345 0 346 26 24 c91 84 32 224 -96 228 -34 1 -56 20 -283 241
-241 234 -246 240 -246 280 0 105 -119 172 -204 116z"/>
<path d="M374 2063 c-160 -156 -204 -193 -224 -192 -67 6 -131 -37 -146 -97
-10 -39 4 -89 33 -120 l27 -29 1 -350 c0 -349 0 -350 -22 -368 -12 -9 -27 -33
-33 -52 -26 -80 21 -159 104 -172 17 -3 37 -8 43 -12 7 -3 98 -91 202 -194
103 -103 193 -187 198 -187 5 0 15 10 22 23 7 13 24 30 38 39 l25 15 -195 193
c-182 178 -195 194 -185 215 17 39 1 95 -40 133 l-36 34 0 338 0 338 32 27
c33 28 57 90 46 119 -5 12 48 70 194 214 l201 197 -43 41 -43 41 -199 -194z"/>
<path d="M1496 2198 c-13 -19 -14 -25 -2 -43 7 -11 24 -20 36 -20 12 0 29 9
36 20 12 18 11 24 -2 43 -8 12 -24 22 -34 22 -10 0 -26 -10 -34 -22z"/>
<path d="M1678 2113 c-23 -6 -34 -49 -18 -68 20 -24 59 -19 72 10 9 21 8 28
-7 45 -10 11 -21 19 -24 19 -3 -1 -14 -3 -23 -6z"/>
<path d="M1874 2072 c-22 -15 -24 -42 -5 -61 23 -23 57 -18 72 10 19 37 -31
76 -67 51z"/>
<path d="M1320 2031 c-15 -29 -13 -39 14 -56 20 -14 28 -14 45 -3 23 14 28 47
9 66 -18 18 -56 14 -68 -7z"/>
<path d="M1163 1877 c-28 -12 -30 -47 -5 -70 15 -13 22 -14 42 -4 51 26 14 99
-37 74z"/>
<path d="M1622 1868 c-19 -19 -14 -56 9 -68 16 -9 26 -8 45 5 27 17 29 27 14
56 -12 21 -50 25 -68 7z"/>
<path d="M1960 1845 c-15 -19 -6 -61 16 -69 18 -7 64 18 64 35 0 42 -54 65
-80 34z"/>
<path d="M983 1708 c-20 -27 -21 -46 -3 -63 23 -21 48 -17 67 12 13 19 12 24
-6 42 -24 24 -44 27 -58 9z"/>
<path d="M1588 1639 c-26 -14 -24 -66 2 -74 50 -16 85 30 49 66 -22 22 -27 22
-51 8z"/>
<path d="M255 1624 c-26 -26 -3 -73 36 -74 39 0 54 61 20 80 -27 14 -37 13
-56 -6z"/>
<path d="M2050 1621 c-20 -38 16 -76 58 -60 24 9 30 47 10 67 -18 18 -56 14
-68 -7z"/>
<path d="M806 1535 c-20 -21 -20 -39 0 -59 19 -20 35 -20 59 -2 16 12 18 19
10 43 -12 33 -45 42 -69 18z"/>
<path d="M372 1493 c-5 -10 -7 -25 -4 -33 13 -41 67 -45 82 -6 12 31 -6 56
-40 56 -18 0 -33 -7 -38 -17z"/>
<path d="M2161 1414 c-44 -31 -9 -100 38 -75 36 20 37 56 2 78 -15 9 -23 8
-40 -3z"/>
<path d="M1530 1391 c-20 -38 24 -80 63 -59 22 11 23 64 1 72 -29 11 -53 6
-64 -13z"/>
<path d="M2242 1188 c-19 -19 -14 -46 12 -63 20 -14 28 -14 45 -3 23 14 26 30
11 59 -12 21 -50 25 -68 7z"/>
<path d="M1495 1160 c-37 -41 24 -97 63 -58 18 18 14 56 -7 68 -27 14 -35 13
-56 -10z"/>
<path d="M399 1123 c-19 -5 -31 -37 -22 -59 7 -20 50 -29 68 -14 18 15 20 51
3 68 -12 12 -20 13 -49 5z"/>
<path d="M262 994 c-20 -13 -22 -39 -7 -64 9 -15 51 -12 65 4 32 39 -17 89
-58 60z"/>
<path d="M1810 840 c-16 -16 -18 -25 -10 -40 14 -26 27 -33 54 -26 32 8 40 42
15 67 -24 24 -34 24 -59 -1z"/>
<path d="M2073 852 c-27 -4 -41 -45 -23 -67 20 -24 59 -19 72 10 10 22 9 29
-8 44 -10 9 -29 15 -41 13z"/>
<path d="M1588 569 c-21 -12 -24 -49 -6 -67 20 -20 54 -14 68 13 12 22 11 27
-5 45 -20 22 -32 24 -57 9z"/>
<path d="M1618 419 c-22 -12 -23 -52 -3 -69 39 -32 92 25 58 62 -18 20 -30 22
-55 7z"/>
</g>
</svg>
